<svg width="442" height="340" xmlns="http://www.w3.org/2000/svg" xmlns:xlink="http://www.w3.org/1999/xlink" overflow="hidden"><defs><clipPath id="clip0"><rect x="249" y="153" width="442" height="340"/></clipPath></defs><g clip-path="url(#clip0)" transform="translate(-249 -153)"><path d="M251.5 292C251.5 216.613 304.33 155.5 369.5 155.5 434.67 155.5 487.5 216.613 487.5 292 487.5 367.387 434.67 428.5 369.5 428.5 304.33 428.5 251.5 367.387 251.5 292Z" stroke="#2F528F" stroke-width="1.33333" stroke-miterlimit="8" fill="#4472C4" fill-rule="evenodd"/><path d="M352.5 306.501C352.5 286.066 369.066 269.5 389.501 269.5L653.499 269.5C673.934 269.5 690.5 286.066 690.5 306.501L690.5 454.499C690.5 474.934 673.934 491.5 653.499 491.5L389.501 491.5C369.066 491.5 352.5 474.934 352.5 454.499Z" stroke="#2F528F" stroke-width="1.33333" stroke-miterlimit="8" fill="#ED7D31" fill-rule="evenodd"/><text fill="#FFFFFF" font-family="Adobe Fan Heiti Std B,Adobe Fan Heiti Std B_MSFontService,sans-serif" font-weight="600" font-size="43" transform="translate(421.909 368)">JUGUETES <tspan font-size="43" x="6.57999" y="51">BARATOS</tspan></text></g></svg>